<?xml version="1.0" encoding="UTF-8" standalone="no"?>
<!DOCTYPE svg PUBLIC "-//W3C//DTD SVG 1.1//EN"
 "http://www.w3.org/Graphics/SVG/1.1/DTD/svg11.dtd">
<!-- Generated by graphviz version 2.47.0 (20210316.0004)
 -->
<!-- Title: dependencies Pages: 1 -->
<svg width="2217pt" height="284pt"
 viewBox="0.00 0.00 2217.00 284.00" xmlns="http://www.w3.org/2000/svg" xmlns:xlink="http://www.w3.org/1999/xlink">
<g id="graph0" class="graph" transform="scale(1 1) rotate(0) translate(4 280)">
<title>dependencies</title>
<polygon fill="white" stroke="transparent" points="-4,4 -4,-280 2213,-280 2213,4 -4,4"/>
<text text-anchor="start" x="1083.51" y="-42.4" font-family="sans-serif" font-weight="bold" font-size="14.00">Legend</text>
<polygon fill="#ffffb3" stroke="transparent" points="870.5,-10 870.5,-30 890.5,-30 890.5,-10 870.5,-10"/>
<text text-anchor="start" x="894.13" y="-15.4" font-family="sans-serif" font-size="14.00"> &#160;Declarations</text>
<polygon fill="#8dd3c7" stroke="transparent" points="983.5,-10 983.5,-30 1003.5,-30 1003.5,-10 983.5,-10"/>
<text text-anchor="start" x="1007.23" y="-15.4" font-family="sans-serif" font-size="14.00"> &#160;Module</text>
<polygon fill="#80b1d3" stroke="transparent" points="1069.5,-10 1069.5,-30 1089.5,-30 1089.5,-10 1069.5,-10"/>
<text text-anchor="start" x="1093.28" y="-15.4" font-family="sans-serif" font-size="14.00"> &#160;Bootstrap</text>
<polygon fill="#fdb462" stroke="transparent" points="1166.5,-10 1166.5,-30 1186.5,-30 1186.5,-10 1166.5,-10"/>
<text text-anchor="start" x="1190.17" y="-15.4" font-family="sans-serif" font-size="14.00"> &#160;Providers</text>
<polygon fill="#fb8072" stroke="transparent" points="1262.5,-10 1262.5,-30 1282.5,-30 1282.5,-10 1262.5,-10"/>
<text text-anchor="start" x="1286.23" y="-15.4" font-family="sans-serif" font-size="14.00"> &#160;Exports</text>
<g id="clust1" class="cluster">
<title>cluster_AppModule</title>
<polygon fill="none" stroke="black" stroke-dasharray="1,5" points="8,-70 8,-268 2201,-268 2201,-70 8,-70"/>
</g>
<g id="clust2" class="cluster">
<title>cluster_AppModule_declarations</title>
<polygon fill="none" stroke="black" points="168,-78 168,-130 2193,-130 2193,-78 168,-78"/>
</g>
<g id="clust17" class="cluster">
<title>cluster_AppModule_imports</title>
<polygon fill="none" stroke="black" points="16,-78 16,-130 160,-130 160,-78 16,-78"/>
</g>
<g id="clust19" class="cluster">
<title>cluster_AppModule_bootstrap</title>
<polygon fill="none" stroke="black" points="1097,-208 1097,-260 1221,-260 1221,-208 1097,-208"/>
</g>
<!-- AppComponent -->
<g id="node1" class="node">
<title>AppComponent</title>
<polygon fill="#ffffb3" stroke="black" points="2184.94,-122 2079.06,-122 2079.06,-86 2184.94,-86 2184.94,-122"/>
<text text-anchor="middle" x="2132" y="-99.8" font-family="Times,serif" font-size="14.00">AppComponent</text>
</g>
<!-- AppModule -->
<g id="node15" class="node">
<title>AppModule</title>
<polygon fill="#8dd3c7" stroke="black" points="1200.66,-187 1197.66,-191 1176.66,-191 1173.66,-187 1117.34,-187 1117.34,-151 1200.66,-151 1200.66,-187"/>
<text text-anchor="middle" x="1159" y="-164.8" font-family="Times,serif" font-size="14.00">AppModule</text>
</g>
<!-- AppComponent&#45;&gt;AppModule -->
<g id="edge1" class="edge">
<title>AppComponent&#45;&gt;AppModule</title>
<path fill="none" stroke="black" d="M2132,-122.15C2132,-145.76 2132,-184 2132,-184 2132,-184 1210.81,-184 1210.81,-184"/>
<polygon fill="black" stroke="black" points="1210.81,-180.5 1200.81,-184 1210.81,-187.5 1210.81,-180.5"/>
</g>
<!-- CadastrarComponent -->
<g id="node2" class="node">
<title>CadastrarComponent</title>
<polygon fill="#ffffb3" stroke="black" points="2061.47,-122 1926.53,-122 1926.53,-86 2061.47,-86 2061.47,-122"/>
<text text-anchor="middle" x="1994" y="-99.8" font-family="Times,serif" font-size="14.00">CadastrarComponent</text>
</g>
<!-- CadastrarComponent&#45;&gt;AppModule -->
<g id="edge2" class="edge">
<title>CadastrarComponent&#45;&gt;AppModule</title>
<path fill="none" stroke="black" d="M1971.51,-122.04C1971.51,-143.66 1971.51,-177 1971.51,-177 1971.51,-177 1210.69,-177 1210.69,-177"/>
<polygon fill="black" stroke="black" points="1210.69,-173.5 1200.69,-177 1210.69,-180.5 1210.69,-173.5"/>
</g>
<!-- CadastrarComponent&#45;&gt;AppModule -->
<g id="edge3" class="edge">
<title>CadastrarComponent&#45;&gt;AppModule</title>
<path fill="none" stroke="black" d="M2016.49,-122.01C2016.49,-144.49 2016.49,-180 2016.49,-180 2016.49,-180 1210.94,-180 1210.94,-180"/>
<polygon fill="black" stroke="black" points="1210.94,-176.5 1200.94,-180 1210.94,-183.5 1210.94,-176.5"/>
</g>
<!-- CausasComponent -->
<g id="node3" class="node">
<title>CausasComponent</title>
<polygon fill="#ffffb3" stroke="black" points="1908.49,-122 1787.51,-122 1787.51,-86 1908.49,-86 1908.49,-122"/>
<text text-anchor="middle" x="1848" y="-99.8" font-family="Times,serif" font-size="14.00">CausasComponent</text>
</g>
<!-- CausasComponent&#45;&gt;AppModule -->
<g id="edge4" class="edge">
<title>CausasComponent&#45;&gt;AppModule</title>
<path fill="none" stroke="black" d="M1848,-122.13C1848,-142.57 1848,-173 1848,-173 1848,-173 1210.81,-173 1210.81,-173"/>
<polygon fill="black" stroke="black" points="1210.81,-169.5 1200.81,-173 1210.81,-176.5 1210.81,-169.5"/>
</g>
<!-- ContatoComponent -->
<g id="node4" class="node">
<title>ContatoComponent</title>
<polygon fill="#ffffb3" stroke="black" points="1769.67,-122 1644.33,-122 1644.33,-86 1769.67,-86 1769.67,-122"/>
<text text-anchor="middle" x="1707" y="-99.8" font-family="Times,serif" font-size="14.00">ContatoComponent</text>
</g>
<!-- ContatoComponent&#45;&gt;AppModule -->
<g id="edge5" class="edge">
<title>ContatoComponent&#45;&gt;AppModule</title>
<path fill="none" stroke="black" d="M1707,-122.11C1707,-141.34 1707,-169 1707,-169 1707,-169 1211.09,-169 1211.09,-169"/>
<polygon fill="black" stroke="black" points="1211.09,-165.5 1201.09,-169 1211.09,-172.5 1211.09,-165.5"/>
</g>
<!-- EntrarComponent -->
<g id="node5" class="node">
<title>EntrarComponent</title>
<polygon fill="#ffffb3" stroke="black" points="1626.31,-122 1509.69,-122 1509.69,-86 1626.31,-86 1626.31,-122"/>
<text text-anchor="middle" x="1568" y="-99.8" font-family="Times,serif" font-size="14.00">EntrarComponent</text>
</g>
<!-- EntrarComponent&#45;&gt;AppModule -->
<g id="edge6" class="edge">
<title>EntrarComponent&#45;&gt;AppModule</title>
<path fill="none" stroke="black" d="M1587.39,-122.27C1587.39,-140.56 1587.39,-166 1587.39,-166 1587.39,-166 1210.86,-166 1210.86,-166"/>
<polygon fill="black" stroke="black" points="1210.86,-162.5 1200.86,-166 1210.86,-169.5 1210.86,-162.5"/>
</g>
<!-- EntrarComponent&#45;&gt;AppModule -->
<g id="edge7" class="edge">
<title>EntrarComponent&#45;&gt;AppModule</title>
<path fill="none" stroke="black" d="M1548.61,-122.03C1548.61,-139.06 1548.61,-162 1548.61,-162 1548.61,-162 1210.7,-162 1210.7,-162"/>
<polygon fill="black" stroke="black" points="1210.7,-158.5 1200.7,-162 1210.7,-165.5 1210.7,-158.5"/>
</g>
<!-- HomeComponent -->
<g id="node6" class="node">
<title>HomeComponent</title>
<polygon fill="#ffffb3" stroke="black" points="1491.55,-122 1376.45,-122 1376.45,-86 1491.55,-86 1491.55,-122"/>
<text text-anchor="middle" x="1434" y="-99.8" font-family="Times,serif" font-size="14.00">HomeComponent</text>
</g>
<!-- HomeComponent&#45;&gt;AppModule -->
<g id="edge8" class="edge">
<title>HomeComponent&#45;&gt;AppModule</title>
<path fill="none" stroke="black" d="M1434,-122.01C1434,-138.05 1434,-159 1434,-159 1434,-159 1210.77,-159 1210.77,-159"/>
<polygon fill="black" stroke="black" points="1210.77,-155.5 1200.77,-159 1210.77,-162.5 1210.77,-155.5"/>
</g>
<!-- MenuComponent -->
<g id="node7" class="node">
<title>MenuComponent</title>
<polygon fill="#ffffb3" stroke="black" points="1357.99,-122 1244.01,-122 1244.01,-86 1357.99,-86 1357.99,-122"/>
<text text-anchor="middle" x="1301" y="-99.8" font-family="Times,serif" font-size="14.00">MenuComponent</text>
</g>
<!-- MenuComponent&#45;&gt;AppModule -->
<g id="edge9" class="edge">
<title>MenuComponent&#45;&gt;AppModule</title>
<path fill="none" stroke="black" d="M1301,-122.12C1301,-136.78 1301,-155 1301,-155 1301,-155 1210.84,-155 1210.84,-155"/>
<polygon fill="black" stroke="black" points="1210.84,-151.5 1200.84,-155 1210.84,-158.5 1210.84,-151.5"/>
</g>
<!-- ParceirosComponent -->
<g id="node8" class="node">
<title>ParceirosComponent</title>
<polygon fill="#ffffb3" stroke="black" points="1225.92,-122 1092.08,-122 1092.08,-86 1225.92,-86 1225.92,-122"/>
<text text-anchor="middle" x="1159" y="-99.8" font-family="Times,serif" font-size="14.00">ParceirosComponent</text>
</g>
<!-- ParceirosComponent&#45;&gt;AppModule -->
<g id="edge10" class="edge">
<title>ParceirosComponent&#45;&gt;AppModule</title>
<path fill="none" stroke="black" d="M1145.06,-122.11C1145.06,-122.11 1145.06,-140.99 1145.06,-140.99"/>
<polygon fill="black" stroke="black" points="1141.56,-140.99 1145.06,-150.99 1148.56,-140.99 1141.56,-140.99"/>
</g>
<!-- ParceirosComponent&#45;&gt;AppModule -->
<g id="edge11" class="edge">
<title>ParceirosComponent&#45;&gt;AppModule</title>
<path fill="none" stroke="black" d="M1172.94,-122.11C1172.94,-122.11 1172.94,-140.99 1172.94,-140.99"/>
<polygon fill="black" stroke="black" points="1169.44,-140.99 1172.94,-150.99 1176.44,-140.99 1169.44,-140.99"/>
</g>
<!-- PerfilEditComponent -->
<g id="node9" class="node">
<title>PerfilEditComponent</title>
<polygon fill="#ffffb3" stroke="black" points="1073.77,-122 938.23,-122 938.23,-86 1073.77,-86 1073.77,-122"/>
<text text-anchor="middle" x="1006" y="-99.8" font-family="Times,serif" font-size="14.00">PerfilEditComponent</text>
</g>
<!-- PerfilEditComponent&#45;&gt;AppModule -->
<g id="edge12" class="edge">
<title>PerfilEditComponent&#45;&gt;AppModule</title>
<path fill="none" stroke="black" d="M1006,-122.12C1006,-136.78 1006,-155 1006,-155 1006,-155 1107.19,-155 1107.19,-155"/>
<polygon fill="black" stroke="black" points="1107.19,-158.5 1117.19,-155 1107.19,-151.5 1107.19,-158.5"/>
</g>
<!-- ProdutoComponent -->
<g id="node10" class="node">
<title>ProdutoComponent</title>
<polygon fill="#ffffb3" stroke="black" points="919.67,-122 794.33,-122 794.33,-86 919.67,-86 919.67,-122"/>
<text text-anchor="middle" x="857" y="-99.8" font-family="Times,serif" font-size="14.00">ProdutoComponent</text>
</g>
<!-- ProdutoComponent&#45;&gt;AppModule -->
<g id="edge13" class="edge">
<title>ProdutoComponent&#45;&gt;AppModule</title>
<path fill="none" stroke="black" d="M857,-122.01C857,-138.05 857,-159 857,-159 857,-159 1107.33,-159 1107.33,-159"/>
<polygon fill="black" stroke="black" points="1107.33,-162.5 1117.33,-159 1107.33,-155.5 1107.33,-162.5"/>
</g>
<!-- ProdutoDeleteComponent -->
<g id="node11" class="node">
<title>ProdutoDeleteComponent</title>
<polygon fill="#ffffb3" stroke="black" points="776.2,-122 613.8,-122 613.8,-86 776.2,-86 776.2,-122"/>
<text text-anchor="middle" x="695" y="-99.8" font-family="Times,serif" font-size="14.00">ProdutoDeleteComponent</text>
</g>
<!-- ProdutoDeleteComponent&#45;&gt;AppModule -->
<g id="edge14" class="edge">
<title>ProdutoDeleteComponent&#45;&gt;AppModule</title>
<path fill="none" stroke="black" d="M695,-122.02C695,-139.37 695,-163 695,-163 695,-163 1107,-163 1107,-163"/>
<polygon fill="black" stroke="black" points="1107,-166.5 1117,-163 1107,-159.5 1107,-166.5"/>
</g>
<!-- ProdutoEditComponent -->
<g id="node12" class="node">
<title>ProdutoEditComponent</title>
<polygon fill="#ffffb3" stroke="black" points="595.5,-122 446.5,-122 446.5,-86 595.5,-86 595.5,-122"/>
<text text-anchor="middle" x="521" y="-99.8" font-family="Times,serif" font-size="14.00">ProdutoEditComponent</text>
</g>
<!-- ProdutoEditComponent&#45;&gt;AppModule -->
<g id="edge15" class="edge">
<title>ProdutoEditComponent&#45;&gt;AppModule</title>
<path fill="none" stroke="black" d="M521,-122.22C521,-140.83 521,-167 521,-167 521,-167 1107.14,-167 1107.14,-167"/>
<polygon fill="black" stroke="black" points="1107.14,-170.5 1117.14,-167 1107.14,-163.5 1107.14,-170.5"/>
</g>
<!-- RodapeComponent -->
<g id="node13" class="node">
<title>RodapeComponent</title>
<polygon fill="#ffffb3" stroke="black" points="428.1,-122 303.9,-122 303.9,-86 428.1,-86 428.1,-122"/>
<text text-anchor="middle" x="366" y="-99.8" font-family="Times,serif" font-size="14.00">RodapeComponent</text>
</g>
<!-- RodapeComponent&#45;&gt;AppModule -->
<g id="edge16" class="edge">
<title>RodapeComponent&#45;&gt;AppModule</title>
<path fill="none" stroke="black" d="M386.68,-122.31C386.68,-142.15 386.68,-171 386.68,-171 386.68,-171 1107.2,-171 1107.2,-171"/>
<polygon fill="black" stroke="black" points="1107.2,-174.5 1117.2,-171 1107.2,-167.5 1107.2,-174.5"/>
</g>
<!-- RodapeComponent&#45;&gt;AppModule -->
<g id="edge17" class="edge">
<title>RodapeComponent&#45;&gt;AppModule</title>
<path fill="none" stroke="black" d="M345.32,-122.28C345.32,-143.32 345.32,-175 345.32,-175 345.32,-175 1107.25,-175 1107.25,-175"/>
<polygon fill="black" stroke="black" points="1107.25,-178.5 1117.25,-175 1107.25,-171.5 1107.25,-178.5"/>
</g>
<!-- TimeComponent -->
<g id="node14" class="node">
<title>TimeComponent</title>
<polygon fill="#ffffb3" stroke="black" points="286.38,-122 175.62,-122 175.62,-86 286.38,-86 286.38,-122"/>
<text text-anchor="middle" x="231" y="-99.8" font-family="Times,serif" font-size="14.00">TimeComponent</text>
</g>
<!-- TimeComponent&#45;&gt;AppModule -->
<g id="edge18" class="edge">
<title>TimeComponent&#45;&gt;AppModule</title>
<path fill="none" stroke="black" d="M231,-122.16C231,-144.35 231,-179 231,-179 231,-179 1107.32,-179 1107.32,-179"/>
<polygon fill="black" stroke="black" points="1107.32,-182.5 1117.32,-179 1107.32,-175.5 1107.32,-182.5"/>
</g>
<!-- AppComponent  -->
<g id="node17" class="node">
<title>AppComponent </title>
<polygon fill="#80b1d3" stroke="black" points="1213.44,-252 1104.56,-252 1104.56,-216 1213.44,-216 1213.44,-252"/>
<text text-anchor="middle" x="1159" y="-229.8" font-family="Times,serif" font-size="14.00">AppComponent </text>
</g>
<!-- AppModule&#45;&gt;AppComponent  -->
<g id="edge20" class="edge">
<title>AppModule&#45;&gt;AppComponent </title>
<path fill="none" stroke="black" stroke-dasharray="1,5" d="M1159,-187.11C1159,-187.11 1159,-205.99 1159,-205.99"/>
<polygon fill="black" stroke="black" points="1155.5,-205.99 1159,-215.99 1162.5,-205.99 1155.5,-205.99"/>
</g>
<!-- AppRoutingModule -->
<g id="node16" class="node">
<title>AppRoutingModule</title>
<polygon fill="#8dd3c7" stroke="black" points="152.27,-122 149.27,-126 128.27,-126 125.27,-122 23.73,-122 23.73,-86 152.27,-86 152.27,-122"/>
<text text-anchor="middle" x="88" y="-99.8" font-family="Times,serif" font-size="14.00">AppRoutingModule</text>
</g>
<!-- AppRoutingModule&#45;&gt;AppModule -->
<g id="edge19" class="edge">
<title>AppRoutingModule&#45;&gt;AppModule</title>
<path fill="none" stroke="black" d="M88,-122.32C88,-145.66 88,-183 88,-183 88,-183 1107.02,-183 1107.02,-183"/>
<polygon fill="black" stroke="black" points="1107.02,-186.5 1117.02,-183 1107.02,-179.5 1107.02,-186.5"/>
</g>
</g>
</svg>
