<?xml version="1.0" encoding="UTF-8" standalone="no"?>
<!DOCTYPE svg PUBLIC "-//W3C//DTD SVG 1.1//EN"
 "http://www.w3.org/Graphics/SVG/1.1/DTD/svg11.dtd">
<!-- Generated by graphviz version 2.47.0 (20210316.0004)
 -->
<!-- Title: dependencies Pages: 1 -->
<svg width="2217pt" height="284pt"
 viewBox="0.00 0.00 2217.00 284.00" xmlns="http://www.w3.org/2000/svg" xmlns:xlink="http://www.w3.org/1999/xlink">
<g id="graph0" class="graph" transform="scale(1 1) rotate(0) translate(4 280)">
<title>dependencies</title>
<polygon fill="white" stroke="transparent" points="-4,4 -4,-280 2213,-280 2213,4 -4,4"/>
<text text-anchor="start" x="1083.51" y="-42.4" font-family="sans-serif" font-weight="bold" font-size="14.00">Legend</text>
<polygon fill="#ffffb3" stroke="transparent" points="870.5,-10 870.5,-30 890.5,-30 890.5,-10 870.5,-10"/>
<text text-anchor="start" x="894.13" y="-15.4" font-family="sans-serif" font-size="14.00"> &#160;Declarations</text>
<polygon fill="#8dd3c7" stroke="transparent" points="983.5,-10 983.5,-30 1003.5,-30 1003.5,-10 983.5,-10"/>
<text text-anchor="start" x="1007.23" y="-15.4" font-family="sans-serif" font-size="14.00"> &#160;Module</text>
<polygon fill="#80b1d3" stroke="transparent" points="1069.5,-10 1069.5,-30 1089.5,-30 1089.5,-10 1069.5,-10"/>
<text text-anchor="start" x="1093.28" y="-15.4" font-family="sans-serif" font-size="14.00"> &#160;Bootstrap</text>
<polygon fill="#fdb462" stroke="transparent" points="1166.5,-10 1166.5,-30 1186.5,-30 1186.5,-10 1166.5,-10"/>
<text text-anchor="start" x="1190.17" y="-15.4" font-family="sans-serif" font-size="14.00"> &#160;Providers</text>
<polygon fill="#fb8072" stroke="transparent" points="1262.5,-10 1262.5,-30 1282.5,-30 1282.5,-10 1262.5,-10"/>
<text text-anchor="start" x="1286.23" y="-15.4" font-family="sans-serif" font-size="14.00"> &#160;Exports</text>
<g id="clust1" class="cluster">
<title>cluster_AppModule</title>
<polygon fill="none" stroke="black" stroke-dasharray="1,5" points="8,-70 8,-268 2201,-268 2201,-70 8,-70"/>
</g>
<g id="clust17" class="cluster">
<title>cluster_AppModule_imports</title>
<polygon fill="none" stroke="black" points="2049,-78 2049,-130 2193,-130 2193,-78 2049,-78"/>
</g>
<g id="clust19" class="cluster">
<title>cluster_AppModule_bootstrap</title>
<polygon fill="none" stroke="black" points="1087,-208 1087,-260 1211,-260 1211,-208 1087,-208"/>
</g>
<g id="clust2" class="cluster">
<title>cluster_AppModule_declarations</title>
<polygon fill="none" stroke="black" points="16,-78 16,-130 2041,-130 2041,-78 16,-78"/>
</g>
<!-- AppComponent -->
<g id="node1" class="node">
<title>AppComponent</title>
<polygon fill="#ffffb3" stroke="black" points="2032.94,-122 1927.06,-122 1927.06,-86 2032.94,-86 2032.94,-122"/>
<text text-anchor="middle" x="1980" y="-99.8" font-family="Times,serif" font-size="14.00">AppComponent</text>
</g>
<!-- AppModule -->
<g id="node15" class="node">
<title>AppModule</title>
<polygon fill="#8dd3c7" stroke="black" points="1190.66,-187 1187.66,-191 1166.66,-191 1163.66,-187 1107.34,-187 1107.34,-151 1190.66,-151 1190.66,-187"/>
<text text-anchor="middle" x="1149" y="-164.8" font-family="Times,serif" font-size="14.00">AppModule</text>
</g>
<!-- AppComponent&#45;&gt;AppModule -->
<g id="edge1" class="edge">
<title>AppComponent&#45;&gt;AppModule</title>
<path fill="none" stroke="black" d="M1980,-122.01C1980,-144.49 1980,-180 1980,-180 1980,-180 1200.78,-180 1200.78,-180"/>
<polygon fill="black" stroke="black" points="1200.78,-176.5 1190.78,-180 1200.78,-183.5 1200.78,-176.5"/>
</g>
<!-- CadastrarComponent -->
<g id="node2" class="node">
<title>CadastrarComponent</title>
<polygon fill="#ffffb3" stroke="black" points="1909.47,-122 1774.53,-122 1774.53,-86 1909.47,-86 1909.47,-122"/>
<text text-anchor="middle" x="1842" y="-99.8" font-family="Times,serif" font-size="14.00">CadastrarComponent</text>
</g>
<!-- CadastrarComponent&#45;&gt;AppModule -->
<g id="edge2" class="edge">
<title>CadastrarComponent&#45;&gt;AppModule</title>
<path fill="none" stroke="black" d="M1819.51,-122.13C1819.51,-142.57 1819.51,-173 1819.51,-173 1819.51,-173 1200.69,-173 1200.69,-173"/>
<polygon fill="black" stroke="black" points="1200.69,-169.5 1190.69,-173 1200.69,-176.5 1200.69,-169.5"/>
</g>
<!-- CadastrarComponent&#45;&gt;AppModule -->
<g id="edge3" class="edge">
<title>CadastrarComponent&#45;&gt;AppModule</title>
<path fill="none" stroke="black" d="M1864.49,-122.04C1864.49,-143.66 1864.49,-177 1864.49,-177 1864.49,-177 1200.82,-177 1200.82,-177"/>
<polygon fill="black" stroke="black" points="1200.82,-173.5 1190.82,-177 1200.82,-180.5 1200.82,-173.5"/>
</g>
<!-- CausasComponent -->
<g id="node3" class="node">
<title>CausasComponent</title>
<polygon fill="#ffffb3" stroke="black" points="1756.49,-122 1635.51,-122 1635.51,-86 1756.49,-86 1756.49,-122"/>
<text text-anchor="middle" x="1696" y="-99.8" font-family="Times,serif" font-size="14.00">CausasComponent</text>
</g>
<!-- CausasComponent&#45;&gt;AppModule -->
<g id="edge4" class="edge">
<title>CausasComponent&#45;&gt;AppModule</title>
<path fill="none" stroke="black" d="M1696,-122.11C1696,-141.34 1696,-169 1696,-169 1696,-169 1201.01,-169 1201.01,-169"/>
<polygon fill="black" stroke="black" points="1201.01,-165.5 1191.01,-169 1201.01,-172.5 1201.01,-165.5"/>
</g>
<!-- ContatoComponent -->
<g id="node4" class="node">
<title>ContatoComponent</title>
<polygon fill="#ffffb3" stroke="black" points="1617.67,-122 1492.33,-122 1492.33,-86 1617.67,-86 1617.67,-122"/>
<text text-anchor="middle" x="1555" y="-99.8" font-family="Times,serif" font-size="14.00">ContatoComponent</text>
</g>
<!-- ContatoComponent&#45;&gt;AppModule -->
<g id="edge5" class="edge">
<title>ContatoComponent&#45;&gt;AppModule</title>
<path fill="none" stroke="black" d="M1555,-122.27C1555,-140.56 1555,-166 1555,-166 1555,-166 1200.92,-166 1200.92,-166"/>
<polygon fill="black" stroke="black" points="1200.92,-162.5 1190.92,-166 1200.92,-169.5 1200.92,-162.5"/>
</g>
<!-- EntrarComponent -->
<g id="node5" class="node">
<title>EntrarComponent</title>
<polygon fill="#ffffb3" stroke="black" points="1474.31,-122 1357.69,-122 1357.69,-86 1474.31,-86 1474.31,-122"/>
<text text-anchor="middle" x="1416" y="-99.8" font-family="Times,serif" font-size="14.00">EntrarComponent</text>
</g>
<!-- EntrarComponent&#45;&gt;AppModule -->
<g id="edge6" class="edge">
<title>EntrarComponent&#45;&gt;AppModule</title>
<path fill="none" stroke="black" d="M1396.61,-122.01C1396.61,-138.05 1396.61,-159 1396.61,-159 1396.61,-159 1200.72,-159 1200.72,-159"/>
<polygon fill="black" stroke="black" points="1200.72,-155.5 1190.72,-159 1200.72,-162.5 1200.72,-155.5"/>
</g>
<!-- EntrarComponent&#45;&gt;AppModule -->
<g id="edge7" class="edge">
<title>EntrarComponent&#45;&gt;AppModule</title>
<path fill="none" stroke="black" d="M1435.39,-122.03C1435.39,-139.06 1435.39,-162 1435.39,-162 1435.39,-162 1200.95,-162 1200.95,-162"/>
<polygon fill="black" stroke="black" points="1200.95,-158.5 1190.95,-162 1200.95,-165.5 1200.95,-158.5"/>
</g>
<!-- HomeComponent -->
<g id="node6" class="node">
<title>HomeComponent</title>
<polygon fill="#ffffb3" stroke="black" points="1339.55,-122 1224.45,-122 1224.45,-86 1339.55,-86 1339.55,-122"/>
<text text-anchor="middle" x="1282" y="-99.8" font-family="Times,serif" font-size="14.00">HomeComponent</text>
</g>
<!-- HomeComponent&#45;&gt;AppModule -->
<g id="edge8" class="edge">
<title>HomeComponent&#45;&gt;AppModule</title>
<path fill="none" stroke="black" d="M1282,-122.12C1282,-136.78 1282,-155 1282,-155 1282,-155 1200.72,-155 1200.72,-155"/>
<polygon fill="black" stroke="black" points="1200.72,-151.5 1190.72,-155 1200.72,-158.5 1200.72,-151.5"/>
</g>
<!-- MenuComponent -->
<g id="node7" class="node">
<title>MenuComponent</title>
<polygon fill="#ffffb3" stroke="black" points="1205.99,-122 1092.01,-122 1092.01,-86 1205.99,-86 1205.99,-122"/>
<text text-anchor="middle" x="1149" y="-99.8" font-family="Times,serif" font-size="14.00">MenuComponent</text>
</g>
<!-- MenuComponent&#45;&gt;AppModule -->
<g id="edge9" class="edge">
<title>MenuComponent&#45;&gt;AppModule</title>
<path fill="none" stroke="black" d="M1149,-122.11C1149,-122.11 1149,-140.99 1149,-140.99"/>
<polygon fill="black" stroke="black" points="1145.5,-140.99 1149,-150.99 1152.5,-140.99 1145.5,-140.99"/>
</g>
<!-- ParceirosComponent -->
<g id="node8" class="node">
<title>ParceirosComponent</title>
<polygon fill="#ffffb3" stroke="black" points="1073.92,-122 940.08,-122 940.08,-86 1073.92,-86 1073.92,-122"/>
<text text-anchor="middle" x="1007" y="-99.8" font-family="Times,serif" font-size="14.00">ParceirosComponent</text>
</g>
<!-- ParceirosComponent&#45;&gt;AppModule -->
<g id="edge10" class="edge">
<title>ParceirosComponent&#45;&gt;AppModule</title>
<path fill="none" stroke="black" d="M984.76,-122.01C984.76,-138.05 984.76,-159 984.76,-159 984.76,-159 1097.13,-159 1097.13,-159"/>
<polygon fill="black" stroke="black" points="1097.13,-162.5 1107.13,-159 1097.13,-155.5 1097.13,-162.5"/>
</g>
<!-- ParceirosComponent&#45;&gt;AppModule -->
<g id="edge11" class="edge">
<title>ParceirosComponent&#45;&gt;AppModule</title>
<path fill="none" stroke="black" d="M1029.24,-122.12C1029.24,-136.78 1029.24,-155 1029.24,-155 1029.24,-155 1097.11,-155 1097.11,-155"/>
<polygon fill="black" stroke="black" points="1097.11,-158.5 1107.11,-155 1097.11,-151.5 1097.11,-158.5"/>
</g>
<!-- PerfilEditComponent -->
<g id="node9" class="node">
<title>PerfilEditComponent</title>
<polygon fill="#ffffb3" stroke="black" points="921.77,-122 786.23,-122 786.23,-86 921.77,-86 921.77,-122"/>
<text text-anchor="middle" x="854" y="-99.8" font-family="Times,serif" font-size="14.00">PerfilEditComponent</text>
</g>
<!-- PerfilEditComponent&#45;&gt;AppModule -->
<g id="edge12" class="edge">
<title>PerfilEditComponent&#45;&gt;AppModule</title>
<path fill="none" stroke="black" d="M854,-122.03C854,-139.06 854,-162 854,-162 854,-162 1097.05,-162 1097.05,-162"/>
<polygon fill="black" stroke="black" points="1097.05,-165.5 1107.05,-162 1097.05,-158.5 1097.05,-165.5"/>
</g>
<!-- ProdutoComponent -->
<g id="node10" class="node">
<title>ProdutoComponent</title>
<polygon fill="#ffffb3" stroke="black" points="767.67,-122 642.33,-122 642.33,-86 767.67,-86 767.67,-122"/>
<text text-anchor="middle" x="705" y="-99.8" font-family="Times,serif" font-size="14.00">ProdutoComponent</text>
</g>
<!-- ProdutoComponent&#45;&gt;AppModule -->
<g id="edge13" class="edge">
<title>ProdutoComponent&#45;&gt;AppModule</title>
<path fill="none" stroke="black" d="M705,-122.27C705,-140.56 705,-166 705,-166 705,-166 1097.23,-166 1097.23,-166"/>
<polygon fill="black" stroke="black" points="1097.23,-169.5 1107.23,-166 1097.23,-162.5 1097.23,-169.5"/>
</g>
<!-- ProdutoDeleteComponent -->
<g id="node11" class="node">
<title>ProdutoDeleteComponent</title>
<polygon fill="#ffffb3" stroke="black" points="624.2,-122 461.8,-122 461.8,-86 624.2,-86 624.2,-122"/>
<text text-anchor="middle" x="543" y="-99.8" font-family="Times,serif" font-size="14.00">ProdutoDeleteComponent</text>
</g>
<!-- ProdutoDeleteComponent&#45;&gt;AppModule -->
<g id="edge14" class="edge">
<title>ProdutoDeleteComponent&#45;&gt;AppModule</title>
<path fill="none" stroke="black" d="M543,-122.11C543,-141.34 543,-169 543,-169 543,-169 1096.87,-169 1096.87,-169"/>
<polygon fill="black" stroke="black" points="1096.87,-172.5 1106.87,-169 1096.87,-165.5 1096.87,-172.5"/>
</g>
<!-- ProdutoEditComponent -->
<g id="node12" class="node">
<title>ProdutoEditComponent</title>
<polygon fill="#ffffb3" stroke="black" points="443.5,-122 294.5,-122 294.5,-86 443.5,-86 443.5,-122"/>
<text text-anchor="middle" x="369" y="-99.8" font-family="Times,serif" font-size="14.00">ProdutoEditComponent</text>
</g>
<!-- ProdutoEditComponent&#45;&gt;AppModule -->
<g id="edge15" class="edge">
<title>ProdutoEditComponent&#45;&gt;AppModule</title>
<path fill="none" stroke="black" d="M369,-122.13C369,-142.57 369,-173 369,-173 369,-173 1097.34,-173 1097.34,-173"/>
<polygon fill="black" stroke="black" points="1097.34,-176.5 1107.34,-173 1097.34,-169.5 1097.34,-176.5"/>
</g>
<!-- RodapeComponent -->
<g id="node13" class="node">
<title>RodapeComponent</title>
<polygon fill="#ffffb3" stroke="black" points="276.1,-122 151.9,-122 151.9,-86 276.1,-86 276.1,-122"/>
<text text-anchor="middle" x="214" y="-99.8" font-family="Times,serif" font-size="14.00">RodapeComponent</text>
</g>
<!-- RodapeComponent&#45;&gt;AppModule -->
<g id="edge16" class="edge">
<title>RodapeComponent&#45;&gt;AppModule</title>
<path fill="none" stroke="black" d="M193.32,-122.01C193.32,-144.49 193.32,-180 193.32,-180 193.32,-180 1097.32,-180 1097.32,-180"/>
<polygon fill="black" stroke="black" points="1097.32,-183.5 1107.32,-180 1097.32,-176.5 1097.32,-183.5"/>
</g>
<!-- RodapeComponent&#45;&gt;AppModule -->
<g id="edge17" class="edge">
<title>RodapeComponent&#45;&gt;AppModule</title>
<path fill="none" stroke="black" d="M234.68,-122.04C234.68,-143.66 234.68,-177 234.68,-177 234.68,-177 1097.34,-177 1097.34,-177"/>
<polygon fill="black" stroke="black" points="1097.34,-180.5 1107.34,-177 1097.34,-173.5 1097.34,-180.5"/>
</g>
<!-- TimeComponent -->
<g id="node14" class="node">
<title>TimeComponent</title>
<polygon fill="#ffffb3" stroke="black" points="134.38,-122 23.62,-122 23.62,-86 134.38,-86 134.38,-122"/>
<text text-anchor="middle" x="79" y="-99.8" font-family="Times,serif" font-size="14.00">TimeComponent</text>
</g>
<!-- TimeComponent&#45;&gt;AppModule -->
<g id="edge18" class="edge">
<title>TimeComponent&#45;&gt;AppModule</title>
<path fill="none" stroke="black" d="M79,-122.15C79,-145.76 79,-184 79,-184 79,-184 1097.05,-184 1097.05,-184"/>
<polygon fill="black" stroke="black" points="1097.05,-187.5 1107.05,-184 1097.05,-180.5 1097.05,-187.5"/>
</g>
<!-- AppComponent  -->
<g id="node17" class="node">
<title>AppComponent </title>
<polygon fill="#80b1d3" stroke="black" points="1203.44,-252 1094.56,-252 1094.56,-216 1203.44,-216 1203.44,-252"/>
<text text-anchor="middle" x="1149" y="-229.8" font-family="Times,serif" font-size="14.00">AppComponent </text>
</g>
<!-- AppModule&#45;&gt;AppComponent  -->
<g id="edge20" class="edge">
<title>AppModule&#45;&gt;AppComponent </title>
<path fill="none" stroke="black" stroke-dasharray="1,5" d="M1149,-187.11C1149,-187.11 1149,-205.99 1149,-205.99"/>
<polygon fill="black" stroke="black" points="1145.5,-205.99 1149,-215.99 1152.5,-205.99 1145.5,-205.99"/>
</g>
<!-- AppRoutingModule -->
<g id="node16" class="node">
<title>AppRoutingModule</title>
<polygon fill="#8dd3c7" stroke="black" points="2185.27,-122 2182.27,-126 2161.27,-126 2158.27,-122 2056.73,-122 2056.73,-86 2185.27,-86 2185.27,-122"/>
<text text-anchor="middle" x="2121" y="-99.8" font-family="Times,serif" font-size="14.00">AppRoutingModule</text>
</g>
<!-- AppRoutingModule&#45;&gt;AppModule -->
<g id="edge19" class="edge">
<title>AppRoutingModule&#45;&gt;AppModule</title>
<path fill="none" stroke="black" d="M2121,-122.15C2121,-145.76 2121,-184 2121,-184 2121,-184 1200.77,-184 1200.77,-184"/>
<polygon fill="black" stroke="black" points="1200.77,-180.5 1190.77,-184 1200.77,-187.5 1200.77,-180.5"/>
</g>
</g>
</svg>
